<svg width="15" height="26" viewBox="0 0 15 26" fill="none" xmlns="http://www.w3.org/2000/svg">
<path d="M7.35459 17.7621C6.74689 17.7621 6.20162 17.6122 5.71878 17.3125C5.24427 17.0129 4.8655 16.6049 4.58246 16.0888C4.30774 15.5727 4.17038 14.9941 4.17038 14.3531C4.17038 13.7121 4.30774 13.1335 4.58246 12.6174C4.8655 12.1013 5.24427 11.6933 5.71878 11.3937C6.20162 11.094 6.74689 10.9441 7.35459 10.9441C7.93732 10.9441 8.46594 11.0648 8.94045 11.3062C9.42329 11.5393 9.78958 11.8598 10.0393 12.2678L9.32755 13.1419C9.19436 12.9504 9.0237 12.7756 8.81558 12.6174C8.60746 12.4592 8.38686 12.3344 8.15377 12.2428C7.92067 12.1512 7.69591 12.1054 7.47946 12.1054C7.07988 12.1054 6.72191 12.2053 6.40557 12.4051C6.09756 12.5966 5.85198 12.863 5.66883 13.2043C5.48569 13.5456 5.39412 13.9285 5.39412 14.3531C5.39412 14.7777 5.48985 15.1606 5.68132 15.5019C5.87279 15.8349 6.12669 16.1013 6.44303 16.3011C6.75937 16.5009 7.10901 16.6008 7.49195 16.6008C7.71672 16.6008 7.93316 16.5633 8.14128 16.4884C8.35772 16.4135 8.56584 16.3011 8.76563 16.1512C8.96543 16.0014 9.15273 15.8183 9.32755 15.6018L10.0393 16.4759C9.77293 16.8505 9.38999 17.1585 8.89051 17.4C8.39935 17.6414 7.88738 17.7621 7.35459 17.7621Z" fill="white"/>
<circle cx="7.68463" cy="14.462" r="6.24355" stroke="white" stroke-width="0.891935"/>
</svg>
