<svg width="42" height="42" viewBox="0 0 42 42" fill="none" xmlns="http://www.w3.org/2000/svg">
<g clip-path="url(#clip0_21_368)">
<path d="M21 42C32.598 42 42 32.598 42 21C42 9.40202 32.598 0 21 0C9.40202 0 0 9.40202 0 21C0 32.598 9.40202 42 21 42Z" fill="#111311"/>
<path d="M27.8283 6.4458H23.1763C20.4156 6.4458 17.345 7.6069 17.345 11.6086C17.3584 13.0029 17.345 14.3383 17.345 15.8412H14.1512V20.9233H17.4438V35.5539H23.494V20.8268H27.4873L27.8487 15.8269H23.3897C23.3897 15.8269 23.3997 13.6028 23.3897 12.9569C23.3897 11.3755 25.0352 11.466 25.1342 11.466C25.9172 11.466 27.4397 11.4683 27.8306 11.466V6.4458H27.8283Z" fill="white"/>
</g>
<defs>
<clipPath id="clip0_21_368">
<rect width="42" height="42" fill="white"/>
</clipPath>
</defs>
</svg>
