<svg width="43" height="42" viewBox="0 0 43 42" fill="none" xmlns="http://www.w3.org/2000/svg">
<g clip-path="url(#clip0_493_861)">
<path d="M21.002 42C32.5999 42 42.002 32.598 42.002 21C42.002 9.40202 32.5999 0 21.002 0C9.40397 0 0.00195312 9.40202 0.00195312 21C0.00195312 32.598 9.40397 42 21.002 42Z" fill="white"/>
<path d="M27.8303 6.4458H23.1783C20.4177 6.4458 17.347 7.6069 17.347 11.6086C17.3605 13.0029 17.347 14.3383 17.347 15.8412H14.1533V20.9233H17.4459V35.5539H23.4961V20.8268H27.4894L27.8507 15.8269H23.3918C23.3918 15.8269 23.4018 13.6028 23.3918 12.9569C23.3918 11.3755 25.0373 11.466 25.1363 11.466C25.9193 11.466 27.4418 11.4683 27.8326 11.466V6.4458H27.8303Z" fill="#111311"/>
</g>
<defs>
<clipPath id="clip0_493_861">
<rect width="42" height="42" fill="white" transform="translate(0.00195312)"/>
</clipPath>
</defs>
</svg>
