<svg width="43" height="42" viewBox="0 0 43 42" fill="none" xmlns="http://www.w3.org/2000/svg">
<path d="M27.2607 11.1741H14.7428C12.7447 11.1741 11.1191 12.7996 11.1191 14.7977V27.3156C11.1191 29.3136 12.7447 30.9397 14.7428 30.9397H27.2607C29.2587 30.9397 30.8848 29.3141 30.8848 27.3156V14.7977C30.8848 12.7996 29.2592 11.1741 27.2607 11.1741ZM21.0017 27.5636C17.4141 27.5636 14.4952 24.6447 14.4952 21.0566C14.4952 17.4691 17.4141 14.5501 21.0017 14.5501C24.5898 14.5501 27.5087 17.4691 27.5087 21.0566C27.5087 24.6442 24.5893 27.5636 21.0017 27.5636ZM27.7178 15.8954C26.8686 15.8954 26.1779 15.2048 26.1779 14.356C26.1779 13.5071 26.8686 12.8165 27.7178 12.8165C28.5667 12.8165 29.2573 13.5071 29.2573 14.356C29.2573 15.2048 28.5667 15.8954 27.7178 15.8954Z" fill="white"/>
<path d="M21.0016 17.2996C18.9305 17.2996 17.2441 18.985 17.2441 21.0561C17.2441 23.128 18.9305 24.814 21.0016 24.814C23.0735 24.814 24.7585 23.128 24.7585 21.0561C24.7585 18.9855 23.0731 17.2996 21.0016 17.2996Z" fill="white"/>
<path d="M21.002 0C9.40444 0 0.00195312 9.40248 0.00195312 21C0.00195312 32.5975 9.40444 42 21.002 42C32.5995 42 42.002 32.5975 42.002 21C42.002 9.40248 32.5995 0 21.002 0ZM33.6341 27.3156C33.6341 30.8302 30.7755 33.6887 27.2609 33.6887H14.743C11.2289 33.6887 8.36985 30.8302 8.36985 27.3156V14.7977C8.36985 11.2835 11.2289 8.42452 14.743 8.42452H27.2609C30.7755 8.42452 33.6341 11.2835 33.6341 14.7977V27.3156Z" fill="white"/>
</svg>
