<svg width="42" height="42" viewBox="0 0 42 42" fill="none" xmlns="http://www.w3.org/2000/svg">
<path d="M27.2588 11.1741H14.7409C12.7429 11.1741 11.1173 12.7996 11.1173 14.7977V27.3156C11.1173 29.3136 12.7429 30.9397 14.7409 30.9397H27.2588C29.2569 30.9397 30.8829 29.3141 30.8829 27.3156V14.7977C30.8829 12.7996 29.2574 11.1741 27.2588 11.1741ZM20.9999 27.5636C17.4123 27.5636 14.4934 24.6447 14.4934 21.0566C14.4934 17.4691 17.4123 14.5501 20.9999 14.5501C24.5879 14.5501 27.5068 17.4691 27.5068 21.0566C27.5068 24.6442 24.5875 27.5636 20.9999 27.5636ZM27.716 15.8954C26.8667 15.8954 26.1761 15.2048 26.1761 14.356C26.1761 13.5071 26.8667 12.8165 27.716 12.8165C28.5648 12.8165 29.2555 13.5071 29.2555 14.356C29.2555 15.2048 28.5648 15.8954 27.716 15.8954Z" fill="#111311"/>
<path d="M21.0001 17.2996C18.9291 17.2996 17.2427 18.985 17.2427 21.0561C17.2427 23.128 18.9291 24.814 21.0001 24.814C23.0721 24.814 24.7571 23.128 24.7571 21.0561C24.7571 18.9855 23.0716 17.2996 21.0001 17.2996Z" fill="#111311"/>
<path d="M21 0C9.40248 0 0 9.40248 0 21C0 32.5975 9.40248 42 21 42C32.5975 42 42 32.5975 42 21C42 9.40248 32.5975 0 21 0ZM33.6321 27.3156C33.6321 30.8302 30.7735 33.6887 27.259 33.6887H14.741C11.2269 33.6887 8.3679 30.8302 8.3679 27.3156V14.7977C8.3679 11.2835 11.2269 8.42452 14.741 8.42452H27.259C30.7735 8.42452 33.6321 11.2835 33.6321 14.7977V27.3156Z" fill="#111311"/>
</svg>
