<svg width="159" height="42" viewBox="0 0 159 42" fill="none" xmlns="http://www.w3.org/2000/svg">
<path d="M27.2607 11.1741H14.7428C12.7447 11.1741 11.1191 12.7996 11.1191 14.7977V27.3156C11.1191 29.3136 12.7447 30.9397 14.7428 30.9397H27.2607C29.2587 30.9397 30.8848 29.3141 30.8848 27.3156V14.7977C30.8848 12.7996 29.2592 11.1741 27.2607 11.1741ZM21.0017 27.5636C17.4141 27.5636 14.4952 24.6447 14.4952 21.0566C14.4952 17.4691 17.4141 14.5501 21.0017 14.5501C24.5898 14.5501 27.5087 17.4691 27.5087 21.0566C27.5087 24.6442 24.5893 27.5636 21.0017 27.5636ZM27.7178 15.8954C26.8686 15.8954 26.1779 15.2048 26.1779 14.356C26.1779 13.5071 26.8686 12.8165 27.7178 12.8165C28.5667 12.8165 29.2573 13.5071 29.2573 14.356C29.2573 15.2048 28.5667 15.8954 27.7178 15.8954Z" fill="white"/>
<path d="M21.0016 17.2996C18.9305 17.2996 17.2441 18.985 17.2441 21.0561C17.2441 23.128 18.9305 24.814 21.0016 24.814C23.0735 24.814 24.7585 23.128 24.7585 21.0561C24.7585 18.9855 23.0731 17.2996 21.0016 17.2996Z" fill="white"/>
<path d="M21.002 0C9.40444 0 0.00195312 9.40248 0.00195312 21C0.00195312 32.5975 9.40444 42 21.002 42C32.5995 42 42.002 32.5975 42.002 21C42.002 9.40248 32.5995 0 21.002 0ZM33.6341 27.3156C33.6341 30.8302 30.7755 33.6887 27.2609 33.6887H14.743C11.2289 33.6887 8.36985 30.8302 8.36985 27.3156V14.7977C8.36985 11.2835 11.2289 8.42452 14.743 8.42452H27.2609C30.7755 8.42452 33.6341 11.2835 33.6341 14.7977V27.3156Z" fill="white"/>
<g clip-path="url(#clip0_493_856)">
<path d="M137.002 42C148.6 42 158.002 32.598 158.002 21C158.002 9.40202 148.6 0 137.002 0C125.404 0 116.002 9.40202 116.002 21C116.002 32.598 125.404 42 137.002 42Z" fill="white"/>
<path d="M143.83 6.4458H139.178C136.418 6.4458 133.347 7.6069 133.347 11.6086C133.361 13.0029 133.347 14.3383 133.347 15.8412H130.153V20.9233H133.446V35.5539H139.496V20.8268H143.489L143.851 15.8269H139.392C139.392 15.8269 139.402 13.6028 139.392 12.9569C139.392 11.3755 141.037 11.466 141.136 11.466C141.919 11.466 143.442 11.4683 143.833 11.466V6.4458H143.83Z" fill="#111311"/>
</g>
<path d="M79.0029 42C90.6009 42 100.003 32.598 100.003 21C100.003 9.40202 90.6009 0 79.0029 0C67.405 0 58.0029 9.40202 58.0029 21C58.0029 32.598 67.405 42 79.0029 42Z" fill="white"/>
<path d="M91.8668 15.0922C90.9669 15.4912 89.9988 15.7611 88.9836 15.8817C90.0202 15.2606 90.8157 14.278 91.1911 13.1051C90.2212 13.6805 89.1465 14.0979 88.0036 14.3229C87.0879 13.3477 85.7833 12.7383 84.3387 12.7383C81.5671 12.7383 79.3192 14.9862 79.3192 17.7579C79.3192 18.1513 79.3637 18.5343 79.4498 18.9019C75.2781 18.6926 71.5792 16.6944 69.1033 13.6565C68.6713 14.3978 68.4235 15.2606 68.4235 16.1804C68.4235 17.9215 69.3103 19.4585 70.6564 20.3584C69.834 20.3326 69.0595 20.1069 68.383 19.7299C68.3827 19.7513 68.3827 19.7726 68.3827 19.7936C68.3827 22.2257 70.1136 24.2543 72.4095 24.7151C71.9887 24.8304 71.5444 24.8914 71.0873 24.8914C70.7631 24.8914 70.4491 24.8603 70.1428 24.8019C70.7815 26.7957 72.6349 28.247 74.8319 28.2878C73.1136 29.6343 70.9496 30.4366 68.5972 30.4366C68.1929 30.4366 67.7923 30.413 67.4004 30.3662C69.6206 31.7909 72.2598 32.6216 75.0943 32.6216C84.3271 32.6216 89.3763 24.973 89.3763 18.3392C89.3763 18.1217 89.3714 17.905 89.3617 17.6901C90.3432 16.9826 91.1941 16.0988 91.8668 15.0922Z" fill="#202020"/>
<defs>
<clipPath id="clip0_493_856">
<rect width="42" height="42" fill="white" transform="translate(116.002)"/>
</clipPath>
</defs>
</svg>
