<svg width="42" height="42" viewBox="0 0 42 42" fill="none" xmlns="http://www.w3.org/2000/svg">
<path d="M21.001 42C32.599 42 42.001 32.598 42.001 21C42.001 9.40202 32.599 0 21.001 0C9.403 0 0.000976562 9.40202 0.000976562 21C0.000976562 32.598 9.403 42 21.001 42Z" fill="#111311"/>
<path d="M33.8644 15.0922C32.9645 15.4912 31.9964 15.7611 30.9812 15.8817C32.0177 15.2606 32.8132 14.278 33.1887 13.1051C32.2188 13.6805 31.144 14.0979 30.0011 14.3229C29.0855 13.3477 27.7809 12.7383 26.3363 12.7383C23.5647 12.7383 21.3167 14.9862 21.3167 17.7579C21.3167 18.1513 21.3613 18.5343 21.4474 18.9019C17.2757 18.6926 13.5768 16.6944 11.1008 13.6565C10.6689 14.3978 10.421 15.2606 10.421 16.1804C10.421 17.9215 11.3079 19.4585 12.654 20.3584C11.8316 20.3326 11.057 20.1069 10.3806 19.7299C10.3802 19.7513 10.3802 19.7726 10.3802 19.7936C10.3802 22.2257 12.1112 24.2543 14.4071 24.7151C13.9863 24.8304 13.5419 24.8914 13.0849 24.8914C12.7607 24.8914 12.4466 24.8603 12.1404 24.8019C12.779 26.7957 14.6324 28.247 16.8294 28.2878C15.1112 29.6343 12.9471 30.4366 10.5947 30.4366C10.1904 30.4366 9.78989 30.413 9.39795 30.3662C11.6182 31.7909 14.2573 32.6216 17.0919 32.6216C26.3247 32.6216 31.3739 24.973 31.3739 18.3392C31.3739 18.1217 31.369 17.905 31.3593 17.6901C32.3408 16.9826 33.1917 16.0988 33.8644 15.0922Z" fill="#F1F2F2"/>
</svg>
