<svg width="43" height="42" viewBox="0 0 43 42" fill="none" xmlns="http://www.w3.org/2000/svg">
<path d="M21.0029 42C32.6009 42 42.0029 32.598 42.0029 21C42.0029 9.40202 32.6009 0 21.0029 0C9.40495 0 0.00292969 9.40202 0.00292969 21C0.00292969 32.598 9.40495 42 21.0029 42Z" fill="white"/>
<path d="M33.8668 15.0922C32.9669 15.4912 31.9988 15.7611 30.9836 15.8817C32.0202 15.2606 32.8157 14.278 33.1911 13.1051C32.2212 13.6805 31.1465 14.0979 30.0036 14.3229C29.0879 13.3477 27.7833 12.7383 26.3387 12.7383C23.5671 12.7383 21.3192 14.9862 21.3192 17.7579C21.3192 18.1513 21.3637 18.5343 21.4498 18.9019C17.2781 18.6926 13.5792 16.6944 11.1033 13.6565C10.6713 14.3978 10.4235 15.2606 10.4235 16.1804C10.4235 17.9215 11.3103 19.4585 12.6564 20.3584C11.834 20.3326 11.0595 20.1069 10.383 19.7299C10.3827 19.7513 10.3827 19.7726 10.3827 19.7936C10.3827 22.2257 12.1136 24.2543 14.4095 24.7151C13.9887 24.8304 13.5444 24.8914 13.0873 24.8914C12.7631 24.8914 12.4491 24.8603 12.1428 24.8019C12.7815 26.7957 14.6349 28.247 16.8319 28.2878C15.1136 29.6343 12.9496 30.4366 10.5972 30.4366C10.1929 30.4366 9.79233 30.413 9.40039 30.3662C11.6206 31.7909 14.2598 32.6216 17.0943 32.6216C26.3271 32.6216 31.3763 24.973 31.3763 18.3392C31.3763 18.1217 31.3714 17.905 31.3617 17.6901C32.3432 16.9826 33.1941 16.0988 33.8668 15.0922Z" fill="#202020"/>
</svg>
