<svg width="33" height="33" viewBox="0 0 33 33" fill="none" xmlns="http://www.w3.org/2000/svg">
<g clip-path="url(#clip0_493_494)">
<path d="M16.5185 32.6553C25.536 32.6553 32.8462 25.3452 32.8462 16.3277C32.8462 7.31019 25.536 6.10352e-05 16.5185 6.10352e-05C7.50105 6.10352e-05 0.190918 7.31019 0.190918 16.3277C0.190918 25.3452 7.50105 32.6553 16.5185 32.6553Z" fill="#D7D7D7"/>
<path d="M21.8273 5.01172H18.2104C16.0639 5.01172 13.6765 5.91448 13.6765 9.02582C13.687 10.1099 13.6765 11.1482 13.6765 12.3167H11.1934V16.2681H13.7533V27.6435H18.4574V16.193H21.5623L21.8432 12.3056H18.3764C18.3764 12.3056 18.3841 10.5763 18.3764 10.0741C18.3764 8.84458 19.6557 8.91499 19.7327 8.91499C20.3415 8.91499 21.5252 8.91677 21.8291 8.91499V5.01172H21.8273Z" fill="white"/>
</g>
<defs>
<clipPath id="clip0_493_494">
<rect width="32.6553" height="32.6553" fill="white" transform="translate(0.190918)"/>
</clipPath>
</defs>
</svg>
