<svg width="33" height="33" viewBox="0 0 33 33" fill="none" xmlns="http://www.w3.org/2000/svg">
<path d="M16.4238 32.6553C25.4413 32.6553 32.7514 25.3451 32.7514 16.3276C32.7514 7.31013 25.4413 0 16.4238 0C7.40632 0 0.0961914 7.31013 0.0961914 16.3276C0.0961914 25.3451 7.40632 32.6553 16.4238 32.6553Z" fill="#D7D7D7"/>
<path d="M26.4251 11.7342C25.7255 12.0445 24.9728 12.2543 24.1834 12.348C24.9894 11.8652 25.6079 11.1012 25.8998 10.1893C25.1457 10.6366 24.31 10.9612 23.4215 11.1361C22.7095 10.3779 21.6952 9.90405 20.572 9.90405C18.417 9.90405 16.6693 11.6518 16.6693 13.8068C16.6693 14.1127 16.7039 14.4105 16.7708 14.6963C13.5273 14.5336 10.6514 12.9799 8.72636 10.618C8.39048 11.1943 8.1978 11.8652 8.1978 12.5803C8.1978 13.934 8.88731 15.1291 9.93394 15.8288C9.29449 15.8087 8.6923 15.6332 8.16636 15.3401C8.16607 15.3567 8.16607 15.3733 8.16607 15.3896C8.16607 17.2806 9.51191 18.8578 11.297 19.2161C10.9698 19.3057 10.6243 19.3532 10.2689 19.3532C10.0169 19.3532 9.7727 19.329 9.53462 19.2836C10.0312 20.8338 11.4722 21.9622 13.1804 21.9939C11.8444 23.0408 10.1618 23.6646 8.33285 23.6646C8.01851 23.6646 7.70708 23.6462 7.40234 23.6099C9.12859 24.7176 11.1805 25.3635 13.3844 25.3635C20.563 25.3635 24.4888 19.4166 24.4888 14.2588C24.4888 14.0897 24.485 13.9212 24.4774 13.7541C25.2406 13.204 25.9021 12.5169 26.4251 11.7342Z" fill="#F1F2F2"/>
</svg>
