<svg width="33" height="33" viewBox="0 0 33 33" fill="none" xmlns="http://www.w3.org/2000/svg">
<path d="M21.1937 8.68793H11.4609C9.90745 8.68793 8.64355 9.95182 8.64355 11.5053V21.2381C8.64355 22.7916 9.90745 24.0558 11.4609 24.0558H21.1937C22.7472 24.0558 24.0114 22.7919 24.0114 21.2381V11.5053C24.0114 9.95182 22.7475 8.68793 21.1937 8.68793ZM16.3273 21.4309C13.538 21.4309 11.2685 19.1614 11.2685 16.3717C11.2685 13.5823 13.538 11.3128 16.3273 11.3128C19.117 11.3128 21.3865 13.5823 21.3865 16.3717C21.3865 19.1611 19.1167 21.4309 16.3273 21.4309ZM21.5491 12.3588C20.8888 12.3588 20.3518 11.8218 20.3518 11.1619C20.3518 10.5019 20.8888 9.96492 21.5491 9.96492C22.2091 9.96492 22.7461 10.5019 22.7461 11.1619C22.7461 11.8218 22.2091 12.3588 21.5491 12.3588Z" fill="#D7D7D7"/>
<path d="M16.3277 13.4506C14.7174 13.4506 13.4062 14.7611 13.4062 16.3713C13.4062 17.9823 14.7174 19.2931 16.3277 19.2931C17.9387 19.2931 19.2487 17.9823 19.2487 16.3713C19.2487 14.7614 17.9383 13.4506 16.3277 13.4506Z" fill="#D7D7D7"/>
<path d="M16.3276 0C7.31049 0 0 7.31049 0 16.3276C0 25.3448 7.31049 32.6553 16.3276 32.6553C25.3448 32.6553 32.6553 25.3448 32.6553 16.3276C32.6553 7.31049 25.3448 0 16.3276 0ZM26.1492 21.238C26.1492 23.9706 23.9266 26.1932 21.194 26.1932H11.4612C8.729 26.1932 6.50609 23.9706 6.50609 21.238V11.5053C6.50609 8.77302 8.729 6.55012 11.4612 6.55012H21.194C23.9266 6.55012 26.1492 8.77302 26.1492 11.5053V21.238Z" fill="#D7D7D7"/>
</svg>
